# Blender 4.5.3 LTS
# www.blender.org
mtllib Ears.mtl
o Ears
v -0.470306 2.950570 0.550044
v -0.611485 2.855594 0.626142
v -0.429099 2.911247 0.557483
v -0.800685 2.837929 0.583230
v -0.797262 2.781848 0.590132
v -0.634005 2.903891 0.612318
v -0.618110 2.792694 0.202506
v -0.472846 2.896596 0.274237
v -0.432122 2.859714 0.240985
v -0.816039 2.772408 0.312167
v -0.638989 2.837090 0.242005
v -0.415445 2.943681 0.406402
v -0.368057 2.909000 0.393621
v -0.429099 2.911247 0.557483
v -0.470306 2.950570 0.550044
v -0.864493 2.785731 0.453557
v -0.797262 2.781848 0.590132
v -0.800685 2.837929 0.583230
v -0.868482 2.728270 0.440634
v -0.814595 2.718295 0.279864
v -0.814595 2.718295 0.279864
v -0.722624 2.570714 0.407949
v -0.868482 2.728270 0.440634
v -0.691903 2.587544 0.297145
v -0.675518 2.600055 0.567908
v -0.797262 2.781848 0.590132
v -0.415445 2.943681 0.406402
v -0.535491 3.123233 0.287761
v -0.455909 3.220272 0.424727
v -0.429099 2.911247 0.557483
v -0.401343 2.753280 0.392378
v -0.368057 2.909000 0.393621
v -0.439343 2.735936 0.558728
v -0.432122 2.859714 0.240985
v -0.446157 2.725420 0.283087
v -0.816039 2.772408 0.312167
v -0.775346 3.025245 0.282871
v -0.638989 2.837090 0.242005
v -0.535491 3.123233 0.287761
v -0.472846 2.896596 0.274237
v -0.563603 2.666261 0.229288
v -0.618110 2.792694 0.202506
v -0.446157 2.725420 0.283087
v -0.432122 2.859714 0.240985
v -0.691903 2.587544 0.297145
v -0.814595 2.718295 0.279864
v -0.470306 2.950570 0.550044
v -0.455909 3.220272 0.424727
v -0.532552 3.272050 0.590062
v -0.634005 2.903891 0.612318
v -0.800685 2.837929 0.583230
v -1.080807 3.041312 0.536512
v -0.864493 2.785731 0.453557
v -0.761370 3.235316 0.680852
v -0.993683 3.145965 0.671254
v -0.797262 2.781848 0.590132
v -0.555913 2.669101 0.617402
v -0.611485 2.855594 0.626142
v -0.675518 2.600055 0.567908
v -0.439343 2.735936 0.558728
v -0.429099 2.911247 0.557483
v -0.834456 3.425688 0.662570
v -0.573711 3.457549 0.561841
v -0.630401 3.583068 0.476738
v -0.578845 3.265846 0.288107
v -0.847788 3.163723 0.302181
v -1.011707 2.981093 0.374676
v -0.637121 3.386376 0.247578
v -1.113399 3.130227 0.403344
v -0.898092 3.295631 0.269123
v -0.487997 3.383757 0.405982
v -0.630401 3.583068 0.476738
v -0.547475 3.503999 0.342122
v -0.415445 2.943681 0.406402
v -0.487997 3.383757 0.405982
v -0.637121 3.386376 0.247578
v -0.547475 3.503999 0.342122
v -0.472846 2.896596 0.274237
v -0.578845 3.265846 0.288107
v -1.194248 3.210002 0.555996
v -1.237764 3.350651 0.498327
v -1.156327 3.269354 0.366767
v -1.011707 2.981093 0.374676
v -0.864493 2.785731 0.453557
v -1.080807 3.041312 0.536512
v -0.816039 2.772408 0.312167
v -1.113399 3.130227 0.403344
v -1.098535 3.331141 0.671213
v -1.237764 3.350651 0.498327
v -1.194248 3.210002 0.555996
v -0.887147 3.558308 0.573035
v -1.146629 3.470603 0.589730
v -1.244304 3.525210 0.351878
v -1.184340 3.680960 0.198383
v -1.139636 3.588385 0.156560
v -1.175703 3.447921 0.239488
v -1.146629 3.470603 0.589730
v -1.244304 3.525210 0.351878
v -1.135887 3.718982 0.292617
v -1.184340 3.680960 0.198383
v -1.169357 3.633360 0.432147
v -0.670109 3.648119 0.223006
v -0.836773 3.754086 0.122586
v -0.854048 3.778818 0.231373
v -0.739236 3.725085 0.337790
v -0.670109 3.648119 0.223006
v -0.857329 3.649049 0.093923
v -0.836773 3.754086 0.122586
v -0.744531 3.540871 0.141231
v -0.961087 3.464355 0.158062
v -1.156327 3.269354 0.366767
v -0.953327 3.710239 0.418968
v -1.008543 3.802938 0.249667
v -1.028339 3.761183 0.118200
v -1.028339 3.761183 0.118200
v -1.012570 3.632836 0.072006
v 0.470306 2.950571 0.550044
v 0.611484 2.855594 0.626142
v 0.634004 2.903892 0.612318
v 0.429099 2.911248 0.557483
v 0.800685 2.837929 0.583230
v 0.797262 2.781849 0.590132
v 0.618110 2.792694 0.202506
v 0.816039 2.772408 0.312167
v 0.814595 2.718296 0.279864
v 0.472846 2.896596 0.274237
v 0.638989 2.837091 0.242006
v 0.432122 2.859714 0.240985
v 0.415445 2.943682 0.406402
v 0.368057 2.909000 0.393621
v 0.429099 2.911248 0.557483
v 0.470306 2.950571 0.550044
v 0.797262 2.781849 0.590132
v 0.868482 2.728270 0.440634
v 0.864493 2.785731 0.453557
v 0.800685 2.837929 0.583230
v 0.814595 2.718296 0.279864
v 0.722624 2.570713 0.407949
v 0.691904 2.587544 0.297145
v 0.868482 2.728270 0.440634
v 0.675518 2.600055 0.567908
v 0.797262 2.781849 0.590132
v 0.415445 2.943682 0.406402
v 0.455909 3.220273 0.424727
v 0.535491 3.123234 0.287761
v 0.429099 2.911248 0.557483
v 0.401343 2.753280 0.392378
v 0.439343 2.735936 0.558728
v 0.432122 2.859714 0.240985
v 0.446157 2.725420 0.283087
v 0.368057 2.909000 0.393621
v 0.816039 2.772408 0.312167
v 0.775345 3.025246 0.282871
v 1.011706 2.981093 0.374676
v 0.638989 2.837091 0.242006
v 0.472846 2.896596 0.274237
v 0.535491 3.123234 0.287761
v 0.432122 2.859714 0.240985
v 0.618110 2.792694 0.202506
v 0.446157 2.725420 0.283087
v 0.563603 2.666262 0.229288
v 0.691904 2.587544 0.297145
v 0.814595 2.718296 0.279864
v 0.470306 2.950571 0.550044
v 0.455909 3.220273 0.424727
v 0.415445 2.943682 0.406402
v 0.634004 2.903892 0.612318
v 0.532551 3.272051 0.590062
v 0.800685 2.837929 0.583230
v 1.080807 3.041313 0.536512
v 0.993683 3.145965 0.671254
v 0.761370 3.235317 0.680853
v 0.797262 2.781849 0.590132
v 0.555913 2.669102 0.617402
v 0.675518 2.600055 0.567908
v 0.611484 2.855594 0.626142
v 0.439343 2.735936 0.558728
v 0.429099 2.911248 0.557483
v 0.834456 3.425689 0.662570
v 0.630401 3.583069 0.476739
v 0.573711 3.457550 0.561841
v 0.578845 3.265847 0.288107
v 0.847788 3.163723 0.302181
v 0.637121 3.386376 0.247579
v 1.113399 3.130227 0.403344
v 0.898092 3.295633 0.269123
v 1.156327 3.269355 0.366768
v 0.630401 3.583069 0.476739
v 0.487997 3.383757 0.405982
v 0.547475 3.504000 0.342123
v 0.487997 3.383757 0.405982
v 0.547475 3.504000 0.342123
v 0.637121 3.386376 0.247579
v 0.472846 2.896596 0.274237
v 0.578845 3.265847 0.288107
v 1.194247 3.210003 0.555996
v 1.156327 3.269355 0.366768
v 1.237764 3.350651 0.498327
v 1.011706 2.981093 0.374676
v 0.864493 2.785731 0.453557
v 0.816039 2.772408 0.312167
v 1.080807 3.041313 0.536512
v 1.113399 3.130227 0.403344
v 1.098534 3.331141 0.671213
v 0.887147 3.558308 0.573035
v 1.237764 3.350651 0.498327
v 1.146629 3.470604 0.589730
v 1.194247 3.210003 0.555996
v 0.864493 2.785731 0.453557
v 1.244305 3.525211 0.351878
v 1.175703 3.447922 0.239488
v 1.244305 3.525211 0.351878
v 1.184339 3.680961 0.198383
v 1.135887 3.718983 0.292617
v 1.169357 3.633361 0.432147
v 0.670109 3.648120 0.223007
v 0.854048 3.778819 0.231373
v 0.836773 3.754087 0.122587
v 0.739236 3.725085 0.337791
v 0.670109 3.648120 0.223007
v 0.836773 3.754087 0.122587
v 0.857329 3.649050 0.093923
v 0.744531 3.540872 0.141231
v 0.961087 3.464356 0.158062
v 1.139635 3.588386 0.156560
v 0.953327 3.710240 0.418968
v 1.146629 3.470604 0.589730
v 1.008542 3.802938 0.249667
v 1.028339 3.761184 0.118200
v 1.012570 3.632836 0.072007
v 1.028339 3.761184 0.118200
v 1.184339 3.680961 0.198383
vn 0.2266 0.3814 0.8962
vn 0.0081 0.2730 0.9620
vn 0.2268 0.3811 0.8963
vn -0.2311 0.1348 0.9636
vn -0.2311 0.1353 0.9635
vn -0.0144 0.2607 0.9653
vn -0.2604 0.5634 -0.7841
vn 0.1899 0.7501 -0.6334
vn 0.1711 0.7455 -0.6442
vn -0.7806 0.2976 -0.5497
vn -0.2910 0.5501 -0.7828
vn 0.5758 0.8151 -0.0637
vn 0.5285 0.8260 -0.1958
vn 0.6322 0.7438 0.2170
vn 0.6312 0.7446 0.2171
vn -0.9850 0.0515 0.1644
vn -0.8972 -0.0194 0.4411
vn -0.8973 -0.0197 0.4411
vn -0.9935 0.1003 -0.0531
vn -0.6974 0.3481 -0.6265
vn -0.7165 -0.6549 -0.2401
vn -0.7421 -0.6669 0.0674
vn -0.7338 -0.6615 0.1544
vn -0.7200 -0.6528 -0.2355
vn -0.6781 -0.6016 0.4222
vn -0.6784 -0.6062 0.4152
vn 0.8246 0.2018 -0.5285
vn 0.8025 0.1808 -0.5685
vn 0.7841 0.1691 -0.5971
vn 0.9521 -0.1246 0.2793
vn 0.9844 -0.1711 -0.0400
vn 0.9864 -0.1637 0.0123
vn 0.9518 -0.1247 0.2804
vn 0.9245 -0.1970 -0.3264
vn 0.9241 -0.1978 -0.3269
vn -0.3531 -0.0514 -0.9342
vn -0.1906 0.0172 -0.9815
vn -0.1286 0.0671 -0.9894
vn -0.0076 0.0993 -0.9950
vn 0.0338 0.1465 -0.9886
vn 0.0326 -0.2767 -0.9604
vn 0.0465 -0.2743 -0.9605
vn 0.3565 -0.1850 -0.9158
vn 0.3552 -0.1857 -0.9162
vn -0.2517 -0.3293 -0.9101
vn -0.2466 -0.3313 -0.9107
vn 0.7224 0.0462 0.6899
vn 0.9149 0.1688 0.3668
vn 0.6757 0.1470 0.7223
vn 0.1970 -0.1426 0.9700
vn -0.2873 -0.4376 0.8520
vn -0.5359 -0.4938 0.6848
vn -0.5183 -0.5684 0.6389
vn 0.1729 -0.0004 0.9849
vn -0.2910 -0.2870 0.9127
vn -0.1903 -0.1737 0.9662
vn 0.0612 -0.0875 0.9943
vn 0.1080 -0.0744 0.9914
vn -0.1868 -0.1678 0.9680
vn 0.3815 0.0283 0.9240
vn 0.3811 0.0266 0.9242
vn 0.1008 0.3580 0.9283
vn 0.6212 0.4504 0.6413
vn 0.2051 0.6742 0.7095
vn -0.0103 -0.0999 -0.9949
vn -0.1779 -0.1510 -0.9724
vn -0.3503 -0.0551 -0.9350
vn 0.0639 -0.3782 -0.9235
vn -0.3234 -0.2263 -0.9188
vn -0.1045 -0.4369 -0.8934
vn 0.8823 0.3613 0.3018
vn 0.7949 0.5939 0.1240
vn 0.8011 0.5812 0.1428
vn 0.9215 0.1221 0.3687
vn 0.7419 0.0998 -0.6630
vn 0.7219 0.0384 -0.6909
vn 0.7219 0.0488 -0.6902
vn 0.8242 0.2007 -0.5296
vn 0.7486 0.1050 -0.6547
vn -0.8684 -0.4280 -0.2504
vn -0.8837 -0.3470 -0.3140
vn -0.8835 -0.3501 -0.3113
vn -0.7822 -0.6053 -0.1472
vn -0.7627 -0.6314 -0.1400
vn -0.8114 -0.5641 -0.1531
vn -0.7633 -0.6312 -0.1380
vn -0.8521 -0.4819 -0.2042
vn -0.4242 0.0842 0.9016
vn -0.8194 0.1690 0.5478
vn -0.6654 -0.1988 0.7195
vn 0.0225 0.6422 0.7662
vn -0.1618 0.5797 0.7986
vn -0.8809 -0.2358 -0.4104
vn -0.7267 0.0328 -0.6862
vn -0.6095 -0.1737 -0.7735
vn -0.6417 -0.4074 -0.6498
vn -0.8294 0.1922 0.5245
vn -0.8604 0.4017 0.3138
vn -0.5916 0.7785 0.2096
vn -0.7096 0.7046 0.0106
vn -0.6043 0.6226 0.4972
vn 0.6819 0.7307 -0.0336
vn 0.3268 0.9200 -0.2162
vn 0.2778 0.9604 0.0203
vn 0.4579 0.8488 0.2644
vn 0.6525 0.0926 -0.7521
vn 0.2606 0.0092 -0.9654
vn 0.3197 0.2478 -0.9145
vn 0.4190 -0.1852 -0.8889
vn -0.0861 -0.4997 -0.8619
vn -0.2754 -0.4629 -0.8425
vn -0.0456 0.8083 0.5869
vn -0.1825 0.9772 0.1080
vn -0.2445 0.9466 -0.2100
vn -0.2557 0.2526 -0.9332
vn -0.1995 -0.0726 -0.9772
vn -0.2266 0.3814 0.8962
vn -0.0081 0.2730 0.9620
vn 0.0144 0.2607 0.9653
vn -0.2268 0.3811 0.8963
vn 0.2311 0.1348 0.9635
vn 0.2310 0.1354 0.9635
vn 0.2604 0.5634 -0.7841
vn 0.7806 0.2976 -0.5497
vn 0.6974 0.3481 -0.6265
vn -0.1899 0.7501 -0.6335
vn 0.2910 0.5501 -0.7828
vn -0.1711 0.7455 -0.6442
vn -0.5758 0.8151 -0.0637
vn -0.5285 0.8260 -0.1958
vn -0.6322 0.7438 0.2170
vn -0.6312 0.7446 0.2171
vn 0.8972 -0.0194 0.4411
vn 0.9935 0.1003 -0.0531
vn 0.9850 0.0515 0.1644
vn 0.8973 -0.0197 0.4411
vn 0.7165 -0.6549 -0.2401
vn 0.7421 -0.6669 0.0674
vn 0.7200 -0.6528 -0.2355
vn 0.7338 -0.6615 0.1544
vn 0.6781 -0.6016 0.4222
vn 0.6784 -0.6062 0.4152
vn -0.8246 0.2018 -0.5285
vn -0.7841 0.1691 -0.5971
vn -0.8025 0.1808 -0.5685
vn -0.9521 -0.1246 0.2793
vn -0.9845 -0.1710 -0.0400
vn -0.9517 -0.1247 0.2804
vn -0.9245 -0.1970 -0.3264
vn -0.9241 -0.1978 -0.3269
vn -0.9864 -0.1637 0.0123
vn 0.3532 -0.0514 -0.9341
vn 0.1906 0.0173 -0.9815
vn 0.3502 -0.0551 -0.9350
vn 0.1286 0.0671 -0.9894
vn -0.0338 0.1465 -0.9886
vn 0.0076 0.0993 -0.9950
vn -0.3552 -0.1857 -0.9162
vn -0.0465 -0.2743 -0.9605
vn -0.3565 -0.1851 -0.9158
vn -0.0326 -0.2767 -0.9604
vn 0.2513 -0.3294 -0.9101
vn 0.2466 -0.3313 -0.9107
vn -0.7224 0.0462 0.6899
vn -0.9149 0.1688 0.3668
vn -0.9215 0.1221 0.3687
vn -0.1970 -0.1426 0.9700
vn -0.6757 0.1470 0.7223
vn 0.2873 -0.4375 0.8520
vn 0.5359 -0.4938 0.6848
vn 0.2910 -0.2870 0.9127
vn -0.1729 -0.0004 0.9849
vn 0.1903 -0.1737 0.9662
vn -0.0612 -0.0875 0.9943
vn 0.1868 -0.1678 0.9680
vn -0.1080 -0.0744 0.9914
vn -0.3815 0.0283 0.9240
vn -0.3811 0.0266 0.9242
vn -0.1008 0.3581 0.9282
vn -0.2051 0.6742 0.7095
vn -0.6212 0.4504 0.6413
vn 0.0103 -0.0999 -0.9949
vn 0.1781 -0.1512 -0.9723
vn -0.0639 -0.3782 -0.9235
vn 0.3234 -0.2263 -0.9188
vn 0.1042 -0.4366 -0.8936
vn 0.2754 -0.4629 -0.8425
vn -0.7949 0.5939 0.1240
vn -0.8823 0.3612 0.3017
vn -0.8011 0.5812 0.1428
vn -0.7419 0.0998 -0.6630
vn -0.7219 0.0488 -0.6902
vn -0.7219 0.0384 -0.6909
vn -0.8242 0.2007 -0.5296
vn -0.7486 0.1050 -0.6547
vn 0.8684 -0.4280 -0.2504
vn 0.8835 -0.3501 -0.3113
vn 0.8837 -0.3470 -0.3140
vn 0.7823 -0.6053 -0.1472
vn 0.7627 -0.6314 -0.1400
vn 0.7633 -0.6312 -0.1380
vn 0.8114 -0.5641 -0.1531
vn 0.8521 -0.4819 -0.2042
vn 0.4242 0.0842 0.9016
vn -0.0225 0.6422 0.7662
vn 0.8194 0.1690 0.5478
vn 0.8294 0.1922 0.5245
vn 0.6654 -0.1988 0.7195
vn 0.5183 -0.5684 0.6389
vn 0.8809 -0.2358 -0.4104
vn 0.6417 -0.4074 -0.6498
vn 0.8604 0.4017 0.3138
vn 0.7096 0.7046 0.0106
vn 0.5915 0.7786 0.2096
vn 0.6043 0.6226 0.4972
vn -0.6819 0.7307 -0.0336
vn -0.2778 0.9604 0.0203
vn -0.3268 0.9200 -0.2162
vn -0.4579 0.8488 0.2644
vn -0.6525 0.0926 -0.7521
vn -0.3197 0.2478 -0.9145
vn -0.2606 0.0092 -0.9654
vn -0.4190 -0.1852 -0.8889
vn 0.0861 -0.4997 -0.8619
vn 0.6095 -0.1738 -0.7735
vn 0.0457 0.8084 0.5869
vn 0.1618 0.5797 0.7986
vn 0.1825 0.9772 0.1081
vn 0.2446 0.9466 -0.2100
vn 0.1994 -0.0727 -0.9772
vn 0.2557 0.2526 -0.9332
vn 0.7267 0.0328 -0.6862
s 1
usemtl Main
f 1//1 2//2 3//3
f 2//2 4//4 5//5
f 2//2 1//1 6//6
f 4//4 2//2 6//6
f 7//7 8//8 9//9
f 7//7 10//10 11//11
f 8//8 12//12 9//9
f 8//8 7//7 11//11
f 13//13 9//9 12//12
f 14//14 12//12 15//15
f 14//14 13//13 12//12
f 16//16 17//17 18//18
f 19//19 17//17 16//16
f 19//19 10//10 20//20
f 10//10 19//19 16//16
f 10//10 7//7 20//20
f 21//21 22//22 23//23
f 22//22 21//21 24//24
f 23//23 22//22 25//25
f 23//23 25//25 26//26
f 27//27 28//28 29//29
f 30//30 31//31 32//32
f 31//31 30//30 33//33
f 31//31 34//34 32//32
f 34//34 31//31 35//35
f 36//36 37//37 38//38
f 38//38 39//39 40//40
f 41//41 42//42 43//43
f 42//42 44//44 43//43
f 45//45 42//42 41//41
f 45//45 46//46 42//42
f 47//47 48//48 49//49
f 50//50 47//47 49//49
f 51//51 52//52 53//53
f 51//51 54//54 55//55
f 56//56 57//57 58//58
f 57//57 56//56 59//59
f 58//58 57//57 60//60
f 61//61 58//58 60//60
f 62//62 55//55 54//54
f 62//62 63//63 64//64
f 54//54 63//63 62//62
f 54//54 51//51 50//50
f 54//54 50//50 49//49
f 65//65 37//37 66//66
f 37//37 39//39 38//38
f 37//37 65//65 39//39
f 37//37 36//36 67//67
f 66//66 37//37 67//67
f 66//66 68//68 65//65
f 69//69 66//66 67//67
f 69//69 70//70 66//66
f 63//63 54//54 49//49
f 63//63 71//71 72//72
f 71//71 73//73 72//72
f 71//71 63//63 49//49
f 48//48 71//71 49//49
f 48//48 47//47 74//74
f 75//75 76//76 77//77
f 28//28 27//27 78//78
f 29//29 79//79 75//75
f 79//79 29//29 28//28
f 79//79 76//76 75//75
f 80//80 81//81 82//82
f 83//83 84//84 85//85
f 83//83 86//86 84//84
f 87//87 80//80 82//82
f 87//87 85//85 80//80
f 85//85 87//87 83//83
f 88//88 89//89 90//90
f 88//88 91//91 92//92
f 52//52 51//51 55//55
f 90//90 55//55 88//88
f 55//55 90//90 52//52
f 55//55 62//62 88//88
f 93//93 94//94 95//95
f 82//82 93//93 96//96
f 82//82 81//81 93//93
f 89//89 88//88 97//97
f 98//98 99//99 100//100
f 98//98 97//97 101//101
f 97//97 98//98 89//89
f 102//102 103//103 104//104
f 73//73 105//105 72//72
f 106//106 107//107 108//108
f 77//77 109//109 106//106
f 68//68 66//66 70//70
f 109//109 77//77 76//76
f 109//109 70//70 110//110
f 109//109 110//110 107//107
f 110//110 96//96 95//95
f 96//96 70//70 111//111
f 96//96 93//93 95//95
f 70//70 109//109 68//68
f 70//70 96//96 110//110
f 70//70 69//69 111//111
f 92//92 112//112 101//101
f 64//64 91//91 62//62
f 112//112 105//105 104//104
f 112//112 92//92 91//91
f 112//112 99//99 101//101
f 105//105 73//73 102//102
f 105//105 91//91 64//64
f 91//91 105//105 112//112
f 91//91 88//88 62//62
f 99//99 98//98 101//101
f 99//99 112//112 113//113
f 100//100 113//113 114//114
f 103//103 114//114 104//104
f 104//104 105//105 102//102
f 113//113 104//104 114//114
f 113//113 112//112 104//104
f 113//113 100//100 99//99
f 107//107 106//106 109//109
f 107//107 115//115 108//108
f 107//107 110//110 116//116
f 116//116 110//110 95//95
f 115//115 116//116 95//95
f 115//115 107//107 116//116
f 94//94 115//115 95//95
f 117//117 118//118 119//119
f 118//118 117//117 120//120
f 118//118 121//121 119//119
f 121//121 118//118 122//122
f 123//123 124//124 125//125
f 123//123 126//126 127//127
f 126//126 123//123 128//128
f 128//128 129//129 126//126
f 129//129 128//128 130//130
f 129//129 131//131 132//132
f 130//130 131//131 129//129
f 133//133 134//134 135//135
f 135//135 136//136 133//133
f 124//124 134//134 125//125
f 124//124 123//123 127//127
f 134//134 124//124 135//135
f 137//137 138//138 139//139
f 138//138 137//137 140//140
f 138//138 140//140 141//141
f 142//142 141//141 140//140
f 143//143 144//144 145//145
f 146//146 147//147 148//148
f 147//147 149//149 150//150
f 147//147 146//146 151//151
f 149//149 147//147 151//151
f 152//152 153//153 154//154
f 155//155 156//156 157//157
f 158//158 159//159 160//160
f 161//161 160//160 159//159
f 159//159 162//162 161//161
f 162//162 159//159 163//163
f 164//164 165//165 166//166
f 167//167 168//168 164//164
f 169//169 170//170 171//171
f 169//169 172//172 167//167
f 173//173 174//174 175//175
f 174//174 173//173 176//176
f 174//174 176//176 177//177
f 178//178 177//177 176//176
f 179//179 180//180 181//181
f 179//179 172//172 171//171
f 172//172 181//181 168//168
f 172//172 169//169 171//171
f 182//182 153//153 157//157
f 153//153 182//182 183//183
f 153//153 152//152 155//155
f 153//153 155//155 157//157
f 183//183 182//182 184//184
f 183//183 154//154 153//153
f 185//185 154//154 183//183
f 185//185 186//186 187//187
f 181//181 188//188 189//189
f 181//181 172//172 179//179
f 189//189 188//188 190//190
f 189//189 168//168 181//181
f 168//168 167//167 172//172
f 165//165 164//164 168//168
f 165//165 168//168 189//189
f 191//191 192//192 193//193
f 145//145 194//194 143//143
f 195//195 144//144 191//191
f 195//195 191//191 193//193
f 144//144 195//195 145//145
f 196//196 197//197 198//198
f 199//199 200//200 201//201
f 199//199 202//202 200//200
f 202//202 203//203 196//196
f 203//203 202//202 199//199
f 204//204 205//205 179//179
f 204//204 179//179 171//171
f 204//204 206//206 207//207
f 208//208 204//204 171//171
f 170//170 208//208 171//171
f 170//170 169//169 209//209
f 210//210 197//197 211//211
f 197//197 210//210 198//198
f 197//197 196//196 203//203
f 212//212 213//213 214//214
f 206//206 204//204 208//208
f 207//207 212//212 215//215
f 207//207 206//206 212//212
f 216//216 217//217 218//218
f 190//190 219//219 216//216
f 220//220 221//221 222//222
f 192//192 223//223 193//193
f 184//184 186//186 183//183
f 223//223 220//220 222//222
f 223//223 192//192 220//220
f 223//223 186//186 184//184
f 224//224 223//223 222//222
f 211//211 224//224 225//225
f 211//211 186//186 224//224
f 186//186 185//185 183//183
f 186//186 211//211 187//187
f 186//186 223//223 224//224
f 215//215 226//226 227//227
f 180//180 179//179 205//205
f 226//226 217//217 219//219
f 226//226 214//214 228//228
f 226//226 215//215 214//214
f 226//226 205//205 227//227
f 205//205 219//219 180//180
f 205//205 204//204 227//227
f 219//219 205//205 226//226
f 219//219 190//190 188//188
f 214//214 215//215 212//212
f 213//213 228//228 214//214
f 228//228 213//213 229//229
f 229//229 217//217 228//228
f 217//217 226//226 228//228
f 217//217 229//229 218//218
f 217//217 216//216 219//219
f 222//222 230//230 224//224
f 221//221 231//231 222//222
f 230//230 225//225 224//224
f 232//232 210//210 225//225
f 231//231 225//225 230//230
f 231//231 230//230 222//222
f 225//225 231//231 232//232
f 225//225 210//210 211//211
