# Blender 4.5.3 LTS
# www.blender.org
mtllib platform_2x2x2_green.mtl
o platform_2x2x2_green
v -10.950000 101.550003 1.000000
v -11.000000 101.550003 0.950000
v -10.950000 101.949997 1.000000
v -10.950000 102.000000 0.950000
v -11.000000 101.949997 0.950000
v -10.950000 101.500000 -0.950000
v -11.000000 101.550003 -0.950000
v -10.950000 101.550003 -1.000000
v -10.950000 102.000000 -0.950000
v -10.950000 101.949997 -1.000000
v -11.000000 101.949997 -0.950000
v -9.000000 101.550003 0.950000
v -9.050000 101.550003 1.000000
v -9.050000 102.000000 0.950000
v -9.050000 101.949997 1.000000
v -9.000000 101.949997 0.950000
v -9.050000 101.550003 -1.000000
v -9.000000 101.550003 -0.950000
v -9.050000 102.000000 -0.950000
v -9.000000 101.949997 -0.950000
v -9.050000 101.949997 -1.000000
v -10.950000 100.000000 0.950000
v -10.950000 100.050003 1.000000
v -11.000000 100.050003 0.950000
v -10.950000 101.449997 1.000000
v -10.950000 101.500000 0.950000
v -11.000000 101.449997 0.950000
v -10.950000 100.000000 -0.950000
v -11.000000 100.050003 -0.950000
v -10.950000 100.050003 -1.000000
v -10.950000 101.449997 -1.000000
v -11.000000 101.449997 -0.950000
v -9.050000 100.000000 0.950000
v -9.000000 100.050003 0.950000
v -9.050000 100.050003 1.000000
v -9.050000 101.500000 0.950000
v -9.050000 101.449997 1.000000
v -9.000000 101.449997 0.950000
v -9.050000 100.000000 -0.950000
v -9.050000 100.050003 -1.000000
v -9.000000 100.050003 -0.950000
v -9.050000 101.500000 -0.950000
v -9.000000 101.449997 -0.950000
v -9.050000 101.449997 -1.000000
vn -0.0000 -0.0000 1.0000
vn 1.0000 -0.0000 -0.0000
vn -0.0000 1.0000 -0.0000
vn -1.0000 -0.0000 -0.0000
vn -0.0000 -0.0000 -1.0000
vn -0.4605 -0.7588 0.4606
vn -0.4605 -0.4606 0.7588
vn -0.7588 -0.4606 0.4606
vn -0.4605 0.4606 0.7588
vn -0.4606 0.7588 0.4606
vn -0.7588 0.4605 0.4606
vn -0.4606 -0.7588 -0.4606
vn -0.7588 -0.4605 -0.4606
vn -0.4605 -0.4606 -0.7588
vn -0.4606 0.7588 -0.4606
vn -0.4605 0.4606 -0.7588
vn -0.7588 0.4605 -0.4606
vn 0.4606 -0.7588 0.4606
vn 0.7588 -0.4605 0.4606
vn 0.4605 -0.4606 0.7588
vn 0.4605 0.7588 0.4606
vn 0.4605 0.4606 0.7588
vn 0.7588 0.4606 0.4606
vn 0.4605 -0.7588 -0.4606
vn 0.4605 -0.4606 -0.7588
vn 0.7588 -0.4606 -0.4606
vn 0.4606 0.7588 -0.4606
vn 0.7588 0.4605 -0.4606
vn 0.4605 0.4606 -0.7588
vn -0.4606 -0.7588 0.4606
vn -0.4606 -0.4605 0.7588
vn -0.7588 -0.4605 0.4606
vn -0.4605 0.7588 0.4606
vn -0.7588 0.4606 0.4606
vn -0.4606 -0.4605 -0.7588
vn -0.4605 0.7588 -0.4606
vn -0.7588 0.4606 -0.4606
vn 0.4606 -0.4605 0.7588
vn 0.4606 -0.7588 -0.4606
vn 0.4606 -0.4605 -0.7588
vn 0.7588 -0.4605 -0.4606
vn 0.4605 0.7588 -0.4606
vn 0.7588 0.4606 -0.4606
vn -0.0000 -1.0000 -0.0000
vt 0.474403 0.171760
vt 0.400597 0.130196
vt 0.474403 0.130196
vt 0.476345 0.171760
vt 0.476345 0.130196
vt 0.400597 0.208206
vt 0.474403 0.208206
vt 0.398655 0.171760
vt 0.398655 0.130196
vt 0.400597 0.171760
vt 0.400597 0.109375
vt 0.400597 0.114571
vt 0.398655 0.114571
vt 0.400597 0.218635
vt 0.400597 0.223831
vt 0.398655 0.218635
vt 0.474403 0.109375
vt 0.476345 0.114571
vt 0.474403 0.114571
vt 0.474403 0.223831
vt 0.474403 0.218635
vt 0.476345 0.218635
vt 0.400597 0.187385
vt 0.398655 0.145821
vt 0.400597 0.145821
vt 0.398655 0.187385
vt 0.476345 0.145821
vt 0.474403 0.187385
vt 0.476345 0.187385
vt 0.474403 0.145821
vt 0.349403 0.932304
vt 0.275597 0.890740
vt 0.349403 0.890740
vt 0.351345 0.932304
vt 0.351345 0.890740
vt 0.273655 0.932304
vt 0.273655 0.890740
vt 0.275597 0.932304
vt 0.275597 0.869919
vt 0.275597 0.875115
vt 0.273655 0.875115
vt 0.275597 0.979179
vt 0.275597 0.984375
vt 0.273655 0.979179
vt 0.349403 0.869919
vt 0.351345 0.875115
vt 0.349403 0.875115
vt 0.349403 0.984375
vt 0.349403 0.979179
vt 0.351345 0.979179
vt 0.275597 0.947929
vt 0.273655 0.906365
vt 0.275597 0.906365
vt 0.273655 0.947929
vt 0.351345 0.906365
vt 0.349403 0.947929
vt 0.351345 0.947929
vt 0.349403 0.906365
vt 0.349403 0.854294
vt 0.275597 0.854294
s 1
usemtl platformer.069
f 15/1/1 1/2/1 13/3/1
f 20/4/2 12/5/2 18/5/2
f 9/6/3 14/7/3 19/7/3
f 5/8/4 7/9/4 2/9/4
f 10/10/5 17/3/5 8/2/5
f 26/11/6 1/12/7 2/13/8
f 3/14/9 4/15/10 5/16/11
f 6/11/12 7/13/13 8/12/14
f 9/15/15 10/14/16 11/16/17
f 36/17/18 12/18/19 13/19/20
f 14/20/21 15/21/22 16/22/23
f 42/17/24 17/19/25 18/18/26
f 19/20/27 20/22/28 21/21/29
f 26/11/6 7/13/13 6/11/12
f 3/23/9 2/24/8 1/25/7
f 9/15/15 5/16/11 4/15/10
f 8/25/14 11/26/17 10/23/16
f 6/11/12 17/19/25 42/17/24
f 19/20/27 10/14/16 9/15/15
f 18/27/26 21/28/29 20/29/28
f 42/17/24 12/18/19 36/17/18
f 14/20/21 20/22/28 19/20/27
f 13/30/20 16/29/23 15/28/22
f 36/17/18 1/12/7 26/11/6
f 4/15/10 15/21/22 14/20/21
f 37/31/1 23/32/1 35/33/1
f 43/34/2 34/35/2 41/35/2
f 27/36/4 29/37/4 24/37/4
f 31/38/5 40/33/5 30/32/5
f 22/39/30 23/40/31 24/41/32
f 25/42/9 26/43/33 27/44/34
f 28/39/12 29/41/13 30/40/35
f 6/43/36 31/42/16 32/44/37
f 33/45/18 34/46/19 35/47/38
f 36/48/21 37/49/22 38/50/23
f 39/45/39 40/47/40 41/46/41
f 42/48/42 43/50/43 44/49/29
f 22/39/30 29/41/13 28/39/12
f 25/51/9 24/52/32 23/53/31
f 6/43/36 27/44/34 26/43/33
f 30/53/35 32/54/37 31/51/16
f 28/39/12 40/47/40 39/45/39
f 42/48/42 31/42/16 6/43/36
f 41/55/41 44/56/29 43/57/43
f 39/45/39 34/46/19 33/45/18
f 36/48/21 43/50/43 42/48/42
f 35/58/38 38/57/23 37/56/22
f 33/45/18 23/40/31 22/39/30
f 26/43/33 37/49/22 36/48/21
f 39/59/44 22/60/44 28/60/44
f 15/1/1 3/10/1 1/2/1
f 20/4/2 16/4/2 12/5/2
f 9/6/3 4/6/3 14/7/3
f 5/8/4 11/8/4 7/9/4
f 10/10/5 21/1/5 17/3/5
f 26/11/6 2/13/8 7/13/13
f 3/23/9 5/26/11 2/24/8
f 9/15/15 11/16/17 5/16/11
f 8/25/14 7/24/13 11/26/17
f 6/11/12 8/12/14 17/19/25
f 19/20/27 21/21/29 10/14/16
f 18/27/26 17/30/25 21/28/29
f 42/17/24 18/18/26 12/18/19
f 14/20/21 16/22/23 20/22/28
f 13/30/20 12/27/19 16/29/23
f 36/17/18 13/19/20 1/12/7
f 4/15/10 3/14/9 15/21/22
f 37/31/1 25/38/1 23/32/1
f 43/34/2 38/34/2 34/35/2
f 27/36/4 32/36/4 29/37/4
f 31/38/5 44/31/5 40/33/5
f 22/39/30 24/41/32 29/41/13
f 25/51/9 27/54/34 24/52/32
f 6/43/36 32/44/37 27/44/34
f 30/53/35 29/52/13 32/54/37
f 28/39/12 30/40/35 40/47/40
f 42/48/42 44/49/29 31/42/16
f 41/55/41 40/58/40 44/56/29
f 39/45/39 41/46/41 34/46/19
f 36/48/21 38/50/23 43/50/43
f 35/58/38 34/55/19 38/57/23
f 33/45/18 35/47/38 23/40/31
f 26/43/33 25/42/9 37/49/22
f 39/59/44 33/59/44 22/60/44
