# Blender 4.5.3 LTS
# www.blender.org
mtllib barrier_2x1x1_green.mtl
o barrier_2x1x1_green
v 10.824000 50.299999 8.540000
v 9.030336 50.441422 8.324000
v 9.176000 50.441422 8.476734
v 9.057066 50.415470 8.448708
v 9.030336 50.299999 8.476734
v 9.176000 50.299999 8.540000
v 8.970000 50.299999 8.324000
v 8.970000 50.799999 8.324000
v 9.176000 50.799999 8.540000
v 9.176000 51.000000 8.324000
v 9.030335 50.799999 8.476734
v 9.057066 50.915470 8.448708
v 9.176000 50.941422 8.476734
v 9.030335 50.941422 8.324000
v 10.824000 50.799999 8.540000
v 11.030000 50.799999 8.324000
v 10.824000 51.000000 8.324000
v 10.969664 50.799999 8.476734
v 10.942934 50.915470 8.448708
v 10.969664 50.941422 8.324000
v 10.824000 50.941422 8.476734
v 8.970000 50.799999 7.676000
v 9.176000 51.000000 7.676000
v 9.176000 50.799999 7.460000
v 9.030335 50.941422 7.676000
v 9.057066 50.915470 7.551292
v 9.176000 50.941422 7.523265
v 9.030335 50.799999 7.523265
v 11.030000 50.799999 7.676000
v 10.824000 50.799999 7.460000
v 10.824000 51.000000 7.676000
v 10.969664 50.799999 7.523264
v 10.942934 50.915470 7.551292
v 10.823999 50.941422 7.523264
v 10.969664 50.941422 7.676000
v 8.970000 50.700001 8.324000
v 9.176000 50.500000 8.324000
v 9.176000 50.700001 8.540000
v 9.030336 50.558578 8.324000
v 9.057066 50.584530 8.448708
v 9.176000 50.558578 8.476734
v 9.030336 50.700001 8.476734
v 11.030000 50.700001 8.324000
v 10.824000 50.700001 8.540000
v 10.969664 50.700001 8.476734
v 10.942934 50.584530 8.448708
v 10.824000 50.558578 8.476734
v 10.969664 50.558578 8.324000
v 8.970000 50.700001 7.676000
v 9.176000 50.700001 7.460000
v 9.030335 50.700001 7.523265
v 9.057066 50.584530 7.551292
v 9.176000 50.558578 7.523265
v 9.030336 50.558578 7.676000
v 11.030000 50.700001 7.676000
v 10.824000 50.500000 7.676000
v 10.824000 50.700001 7.460000
v 10.969664 50.558578 7.676000
v 10.942934 50.584530 7.551292
v 10.824000 50.558578 7.523264
v 10.969664 50.700001 7.523264
v 11.030000 50.299999 8.324000
v 10.824000 50.500000 8.324000
v 10.969665 50.299999 8.476734
v 10.942934 50.415470 8.448708
v 10.969664 50.441422 8.324000
v 10.824000 50.441422 8.476734
v 8.970000 50.299999 7.676000
v 9.176000 50.500000 7.676000
v 9.176000 50.299999 7.460000
v 9.030336 50.441422 7.676000
v 9.057066 50.415470 7.551292
v 9.176000 50.441422 7.523265
v 9.030336 50.299999 7.523265
v 11.030000 50.299999 7.676000
v 10.824000 50.299999 7.460000
v 10.969664 50.299999 7.523264
v 10.942934 50.415470 7.551292
v 10.824000 50.441422 7.523264
v 10.969664 50.441422 7.676000
v 8.970000 50.200001 8.324000
v 9.176000 50.200001 8.540000
v 9.030336 50.058578 8.324000
v 9.057066 50.084530 8.448708
v 9.176000 50.058578 8.476734
v 9.030336 50.200001 8.476734
v 11.030000 50.200001 8.324000
v 10.824000 50.200001 8.540000
v 10.969665 50.200001 8.476734
v 10.942934 50.084530 8.448708
v 10.824000 50.058578 8.476734
v 10.969665 50.058578 8.324000
v 8.970000 50.200001 7.676000
v 9.176000 50.200001 7.460000
v 9.030336 50.200001 7.523265
v 9.057066 50.084530 7.551292
v 9.176000 50.058578 7.523265
v 9.030336 50.058578 7.676000
v 11.030000 50.200001 7.676000
v 10.824000 50.200001 7.460000
v 10.969665 50.058578 7.676000
v 10.942934 50.084530 7.551292
v 10.824000 50.058578 7.523264
v 10.969665 50.200001 7.523264
v 9.176000 50.000000 8.324000
v 10.824000 50.000000 8.324000
v 9.176000 50.000000 7.676000
v 10.824000 50.000000 7.676000
vn 0.1863 -0.1917 0.9636
vn -0.1863 0.1917 0.9636
vn -0.1863 -0.1917 0.9636
vn 0.9677 0.1848 -0.1714
vn 0.9677 -0.1848 0.1714
vn 0.9677 -0.1848 -0.1714
vn 0.1754 0.9701 0.1674
vn -0.1754 0.9701 -0.1674
vn -0.1754 0.9702 0.1674
vn 0.1863 0.1917 -0.9636
vn -0.1863 -0.1917 -0.9636
vn -0.1863 0.1917 -0.9636
vn -0.9677 0.1848 0.1714
vn -0.8895 0.3332 0.3125
vn -0.9119 0.3890 0.1309
vn -0.3370 0.3454 0.8759
vn -0.7093 0.1551 0.6877
vn -0.3177 0.8976 0.3054
vn -0.1335 0.9253 0.3549
vn 0.1863 0.1917 0.9636
vn 0.3370 0.3454 0.8759
vn 0.1424 0.4042 0.9035
vn 0.9677 0.1848 0.1714
vn 0.8895 0.3332 0.3125
vn 0.9208 0.1407 0.3638
vn 0.3177 0.8976 0.3054
vn 0.3701 0.9202 0.1278
vn -0.9677 0.1848 -0.1714
vn -0.8895 0.3332 -0.3125
vn -0.9208 0.1407 -0.3638
vn -0.3177 0.8976 -0.3054
vn -0.3701 0.9202 -0.1278
vn -0.3370 0.3454 -0.8759
vn -0.1424 0.4042 -0.9035
vn 0.8895 0.3332 -0.3125
vn 0.9119 0.3890 -0.1309
vn 0.3370 0.3454 -0.8759
vn 0.3941 0.1464 -0.9073
vn 0.1754 0.9702 -0.1674
vn 0.3177 0.8976 -0.3054
vn 0.1335 0.9253 -0.3549
vn -0.9677 -0.1848 0.1714
vn -0.8895 -0.3332 0.3125
vn -0.7093 -0.1551 0.6877
vn -0.2348 -0.9459 0.2241
vn -0.3177 -0.8976 0.3054
vn -0.3700 -0.9202 0.1278
vn -0.3370 -0.3454 0.8759
vn -0.1424 -0.4042 0.9035
vn 0.8895 -0.3332 0.3125
vn 0.6933 -0.7069 0.1398
vn 0.3370 -0.3454 0.8759
vn 0.3941 -0.1464 0.9073
vn 0.2348 -0.9459 0.2241
vn 0.3177 -0.8976 0.3054
vn 0.1335 -0.9253 0.3549
vn -0.9677 -0.1848 -0.1714
vn -0.8895 -0.3332 -0.3125
vn -0.9119 -0.3891 -0.1309
vn -0.3370 -0.3454 -0.8759
vn -0.3941 -0.1464 -0.9073
vn -0.2348 -0.9459 -0.2241
vn -0.3177 -0.8976 -0.3054
vn -0.1335 -0.9253 -0.3549
vn 0.8895 -0.3332 -0.3125
vn 0.9208 -0.1407 -0.3638
vn 0.2348 -0.9459 -0.2241
vn 0.3177 -0.8976 -0.3054
vn 0.6933 -0.7069 -0.1398
vn 0.1863 -0.1917 -0.9636
vn 0.3370 -0.3454 -0.8759
vn 0.1424 -0.4042 -0.9035
vn -0.9119 0.3890 -0.1309
vn -0.3700 0.9202 0.1278
vn -0.1424 0.4042 0.9035
vn 0.1335 0.9253 0.3549
vn 0.9119 0.3890 0.1309
vn 0.3700 0.9202 -0.1278
vn 0.1424 0.4042 -0.9035
vn -0.9208 -0.1407 -0.3638
vn -0.3941 0.1464 -0.9073
vn 0.9208 0.1407 -0.3638
vn 0.3941 -0.1464 -0.9073
vn 0.1335 -0.9253 -0.3549
vn -0.1424 -0.4042 -0.9035
vn -0.9119 -0.3890 0.1309
vn -0.3701 -0.9202 -0.1278
vn 0.1424 -0.4042 0.9035
vn -0.1335 -0.9253 0.3549
vn 0.9208 -0.1407 0.3638
vn 0.3941 0.1464 0.9073
vn -0.3941 0.1464 0.9073
vn -0.2348 0.9459 0.2241
vn 0.2348 0.9459 0.2241
vn 0.3700 0.9202 0.1278
vn -0.2348 0.9459 -0.2241
vn -0.3700 0.9202 -0.1278
vn 0.7093 0.1551 -0.6877
vn 0.2348 0.9459 -0.2241
vn -0.9208 -0.1407 0.3638
vn -0.1754 -0.9702 0.1674
vn -0.6933 -0.7069 0.1398
vn 0.1754 -0.9702 0.1674
vn -0.6933 -0.7069 -0.1398
vn -0.1754 -0.9702 -0.1674
vn 0.7093 -0.1551 -0.6877
vn 0.1754 -0.9702 -0.1674
vn -0.1335 0.9253 -0.3549
vn -0.9208 0.1407 0.3638
vn -0.3941 -0.1464 0.9073
vt 0.471057 0.169997
vt 0.403943 0.176870
vt 0.403943 0.169997
vt 0.471057 0.135630
vt 0.403943 0.142503
vt 0.403943 0.135630
vt 0.474786 0.176870
vt 0.474786 0.169997
vt 0.471057 0.228918
vt 0.403943 0.228918
vt 0.471057 0.176870
vt 0.400214 0.176870
vt 0.401790 0.210341
vt 0.401307 0.212125
vt 0.401307 0.176870
vt 0.401790 0.223108
vt 0.403943 0.224892
vt 0.473210 0.210341
vt 0.471057 0.212125
vt 0.473694 0.176870
vt 0.473210 0.223108
vt 0.473694 0.224892
vt 0.401307 0.224892
vt 0.403943 0.212125
vt 0.473694 0.212125
vt 0.471057 0.224892
vt 0.400214 0.169997
vt 0.401790 0.136526
vt 0.401307 0.169997
vt 0.403943 0.117949
vt 0.401790 0.123759
vt 0.401307 0.121975
vt 0.403943 0.134742
vt 0.473210 0.136526
vt 0.473694 0.134742
vt 0.473694 0.169997
vt 0.471057 0.117949
vt 0.473210 0.123759
vt 0.471057 0.121975
vt 0.401307 0.134742
vt 0.403943 0.121975
vt 0.473694 0.121975
vt 0.471057 0.134742
vt 0.474786 0.142503
vt 0.474786 0.135630
vt 0.471057 0.142503
vt 0.400214 0.142503
vt 0.401790 0.175974
vt 0.401307 0.177758
vt 0.401307 0.142503
vt 0.403943 0.194551
vt 0.401790 0.188741
vt 0.403943 0.190525
vt 0.473210 0.175974
vt 0.471057 0.177758
vt 0.473694 0.142503
vt 0.471057 0.194551
vt 0.473210 0.188741
vt 0.473694 0.190525
vt 0.401307 0.190525
vt 0.403943 0.177758
vt 0.473694 0.177758
vt 0.471057 0.190525
vt 0.400214 0.135630
vt 0.401790 0.102159
vt 0.401307 0.135630
vt 0.403943 0.083582
vt 0.401790 0.089392
vt 0.401307 0.087608
vt 0.403943 0.100375
vt 0.473210 0.102159
vt 0.473694 0.100375
vt 0.473694 0.135630
vt 0.471057 0.083582
vt 0.473210 0.089392
vt 0.471057 0.087608
vt 0.401307 0.100375
vt 0.403943 0.087608
vt 0.473694 0.087608
vt 0.471057 0.100375
s 1
usemtl platformer.071
f 44/1/1 9/2/2 38/3/3
f 88/4/1 6/5/2 82/6/3
f 29/7/4 43/8/5 55/8/6
f 17/9/7 23/10/8 10/10/9
f 30/11/10 50/3/11 24/2/12
f 8/12/13 12/13/14 14/14/15
f 9/2/2 12/13/16 11/15/17
f 10/10/9 12/16/18 13/17/19
f 15/11/20 19/18/21 21/19/22
f 16/7/23 19/18/24 18/20/25
f 17/9/7 19/21/26 20/22/27
f 22/12/28 26/13/29 28/15/30
f 23/10/8 26/16/31 25/23/32
f 24/2/12 26/13/33 27/24/34
f 29/7/4 33/18/35 35/25/36
f 30/11/10 33/18/37 32/20/38
f 31/9/39 33/21/40 34/26/41
f 36/27/42 40/28/43 42/29/44
f 37/30/45 40/31/46 39/32/47
f 38/3/3 40/28/48 41/33/49
f 43/8/5 46/34/50 48/35/51
f 44/1/1 46/34/52 45/36/53
f 63/37/54 46/38/55 47/39/56
f 49/27/57 52/28/58 54/40/59
f 50/3/11 52/28/60 51/29/61
f 69/30/62 52/31/63 53/41/64
f 55/8/6 59/34/65 61/36/66
f 56/37/67 59/38/68 58/42/69
f 57/1/70 59/34/71 60/43/72
f 8/12/13 25/14/73 22/12/28
f 14/23/74 23/10/8 25/23/32
f 15/11/20 13/24/75 9/2/2
f 21/26/76 10/10/9 13/17/19
f 29/7/4 20/25/77 16/7/23
f 35/22/78 17/9/7 20/22/27
f 24/2/12 34/19/79 30/11/10
f 34/26/41 23/10/8 31/9/39
f 22/12/28 51/29/80 49/27/57
f 28/15/81 50/3/11 51/29/61
f 55/8/6 32/20/82 29/7/4
f 61/36/83 30/11/10 32/20/38
f 69/30/62 60/39/84 56/37/67
f 53/33/85 57/1/70 60/43/72
f 49/27/57 39/40/86 36/27/42
f 54/32/87 37/30/45 39/32/47
f 43/8/5 58/35/69 55/8/6
f 48/42/51 56/37/67 58/42/69
f 38/3/3 47/43/88 44/1/1
f 41/41/89 63/37/54 47/39/56
f 36/27/42 11/15/17 8/12/13
f 42/29/44 9/2/2 11/15/17
f 16/7/23 45/36/90 43/8/5
f 18/20/91 44/1/1 45/36/53
f 49/27/57 8/12/13 22/12/28
f 75/44/4 87/45/5 99/45/6
f 76/46/10 94/6/11 70/5/12
f 7/47/13 4/48/14 2/49/15
f 6/5/2 4/48/16 5/50/92
f 37/51/93 4/52/18 3/53/19
f 1/46/20 65/54/21 67/55/22
f 62/44/23 65/54/24 64/56/25
f 63/57/94 65/58/26 66/59/95
f 68/47/28 72/48/29 74/50/30
f 69/51/96 72/52/31 71/60/97
f 70/5/12 72/48/33 73/61/34
f 75/44/4 78/54/35 80/62/36
f 76/46/10 78/54/37 77/56/98
f 56/57/99 78/58/40 79/63/41
f 81/64/42 84/65/43 86/66/100
f 105/67/101 84/68/46 83/69/102
f 82/6/3 84/65/48 85/70/49
f 87/45/5 90/71/50 92/72/51
f 88/4/1 90/71/52 89/73/53
f 106/74/103 90/75/55 91/76/56
f 93/64/57 96/65/58 98/77/104
f 94/6/11 96/65/60 95/66/61
f 107/67/105 96/68/63 97/78/64
f 99/45/6 102/71/65 104/73/106
f 108/74/107 102/75/68 101/79/69
f 100/4/70 102/71/71 103/80/72
f 7/47/13 71/49/73 68/47/28
f 2/60/74 69/51/96 71/60/97
f 1/46/20 3/61/75 6/5/2
f 67/63/76 37/51/93 3/53/19
f 75/44/4 66/62/77 62/44/23
f 80/59/78 63/57/94 66/59/95
f 70/5/12 79/55/79 76/46/10
f 73/53/108 56/57/99 79/63/41
f 68/47/28 95/66/80 93/64/57
f 74/50/81 94/6/11 95/66/61
f 99/45/6 77/56/98 75/44/4
f 77/56/98 100/4/70 76/46/10
f 107/67/105 103/76/84 108/74/107
f 97/70/85 100/4/70 103/80/72
f 93/64/57 83/77/102 81/64/42
f 98/69/104 105/67/101 83/69/102
f 87/45/5 101/72/69 99/45/6
f 92/79/51 108/74/107 101/79/69
f 82/6/3 91/80/88 88/4/1
f 85/78/89 106/74/103 91/76/56
f 81/64/42 5/50/109 7/47/13
f 86/66/110 6/5/2 5/50/92
f 62/44/23 89/73/90 87/45/5
f 64/56/91 88/4/1 89/73/53
f 93/64/57 7/47/13 68/47/28
f 107/67/105 106/74/103 105/67/101
f 44/1/1 15/11/20 9/2/2
f 88/4/1 1/46/20 6/5/2
f 29/7/4 16/7/23 43/8/5
f 17/9/7 31/9/39 23/10/8
f 30/11/10 57/1/70 50/3/11
f 8/12/13 11/15/17 12/13/14
f 9/2/2 13/24/75 12/13/16
f 10/10/9 14/23/74 12/16/18
f 15/11/20 18/20/91 19/18/21
f 16/7/23 20/25/77 19/18/24
f 17/9/7 21/26/76 19/21/26
f 22/12/28 25/14/73 26/13/29
f 23/10/8 27/17/108 26/16/31
f 24/2/12 28/15/81 26/13/33
f 29/7/4 32/20/82 33/18/35
f 30/11/10 34/19/79 33/18/37
f 31/9/39 35/22/78 33/21/40
f 36/27/42 39/40/86 40/28/43
f 37/30/45 41/41/89 40/31/46
f 38/3/3 42/29/44 40/28/48
f 43/8/5 45/36/90 46/34/50
f 44/1/1 47/43/88 46/34/52
f 63/37/54 48/42/51 46/38/55
f 49/27/57 51/29/80 52/28/58
f 50/3/11 53/33/85 52/28/60
f 69/30/62 54/32/87 52/31/63
f 55/8/6 58/35/69 59/34/65
f 56/37/67 60/39/84 59/38/68
f 57/1/70 61/36/83 59/34/71
f 8/12/13 14/14/15 25/14/73
f 14/23/74 10/10/9 23/10/8
f 15/11/20 21/19/22 13/24/75
f 21/26/76 17/9/7 10/10/9
f 29/7/4 35/25/36 20/25/77
f 35/22/78 31/9/39 17/9/7
f 24/2/12 27/24/34 34/19/79
f 34/26/41 27/17/108 23/10/8
f 22/12/28 28/15/30 51/29/80
f 28/15/81 24/2/12 50/3/11
f 55/8/6 61/36/66 32/20/82
f 61/36/83 57/1/70 30/11/10
f 69/30/62 53/41/64 60/39/84
f 53/33/85 50/3/11 57/1/70
f 49/27/57 54/40/59 39/40/86
f 54/32/87 69/30/62 37/30/45
f 43/8/5 48/35/51 58/35/69
f 48/42/51 63/37/54 56/37/67
f 38/3/3 41/33/49 47/43/88
f 41/41/89 37/30/45 63/37/54
f 36/27/42 42/29/44 11/15/17
f 42/29/44 38/3/3 9/2/2
f 16/7/23 18/20/25 45/36/90
f 18/20/91 15/11/20 44/1/1
f 49/27/57 36/27/42 8/12/13
f 75/44/4 62/44/23 87/45/5
f 76/46/10 100/4/70 94/6/11
f 7/47/13 5/50/109 4/48/14
f 6/5/2 3/61/75 4/48/16
f 37/51/93 2/60/74 4/52/18
f 1/46/20 64/56/91 65/54/21
f 62/44/23 66/62/77 65/54/24
f 63/57/94 67/63/76 65/58/26
f 68/47/28 71/49/73 72/48/29
f 69/51/96 73/53/108 72/52/31
f 70/5/12 74/50/81 72/48/33
f 75/44/4 77/56/98 78/54/35
f 76/46/10 79/55/79 78/54/37
f 56/57/99 80/59/78 78/58/40
f 81/64/42 83/77/102 84/65/43
f 105/67/101 85/78/89 84/68/46
f 82/6/3 86/66/110 84/65/48
f 87/45/5 89/73/90 90/71/50
f 88/4/1 91/80/88 90/71/52
f 106/74/103 92/79/51 90/75/55
f 93/64/57 95/66/80 96/65/58
f 94/6/11 97/70/85 96/65/60
f 107/67/105 98/69/104 96/68/63
f 99/45/6 101/72/69 102/71/65
f 108/74/107 103/76/84 102/75/68
f 100/4/70 104/73/106 102/71/71
f 7/47/13 2/49/15 71/49/73
f 2/60/74 37/51/93 69/51/96
f 1/46/20 67/55/22 3/61/75
f 67/63/76 63/57/94 37/51/93
f 75/44/4 80/62/36 66/62/77
f 80/59/78 56/57/99 63/57/94
f 70/5/12 73/61/34 79/55/79
f 73/53/108 69/51/96 56/57/99
f 68/47/28 74/50/30 95/66/80
f 74/50/81 70/5/12 94/6/11
f 99/45/6 104/73/106 77/56/98
f 77/56/98 104/73/106 100/4/70
f 107/67/105 97/78/64 103/76/84
f 97/70/85 94/6/11 100/4/70
f 93/64/57 98/77/104 83/77/102
f 98/69/104 107/67/105 105/67/101
f 87/45/5 92/72/51 101/72/69
f 92/79/51 106/74/103 108/74/107
f 82/6/3 85/70/49 91/80/88
f 85/78/89 105/67/101 106/74/103
f 81/64/42 86/66/100 5/50/109
f 86/66/110 82/6/3 6/5/2
f 62/44/23 64/56/25 89/73/90
f 64/56/91 1/46/20 88/4/1
f 93/64/57 81/64/42 7/47/13
f 107/67/105 108/74/107 106/74/103
